<svg xmlns="http://www.w3.org/2000/svg" viewBox="0 0 1200 1200" role="img" aria-labelledby="title desc">
  <title id="title">Stoneware coffee mug set</title>
  <desc id="desc">Three glazed stoneware mugs on a warm kitchen shelf.</desc>
  <defs>
    <linearGradient id="bg" x1="0" y1="0" x2="1" y2="1">
      <stop offset="0" stop-color="#f8fafc"/>
      <stop offset="0.56" stop-color="#edf2f7"/>
      <stop offset="1" stop-color="#e6eef4"/>
    </linearGradient>
    <linearGradient id="mugA" x1="0" y1="0" x2="0" y2="1">
      <stop offset="0" stop-color="#f8fbfb"/>
      <stop offset="0.52" stop-color="#d9e7e5"/>
      <stop offset="1" stop-color="#a8bdb8"/>
    </linearGradient>
    <linearGradient id="mugB" x1="0" y1="0" x2="0" y2="1">
      <stop offset="0" stop-color="#f2d7bf"/>
      <stop offset="0.55" stop-color="#d19b72"/>
      <stop offset="1" stop-color="#9c6849"/>
    </linearGradient>
    <linearGradient id="mugC" x1="0" y1="0" x2="0" y2="1">
      <stop offset="0" stop-color="#d8ece8"/>
      <stop offset="0.58" stop-color="#8fbdb4"/>
      <stop offset="1" stop-color="#587d77"/>
    </linearGradient>
    <filter id="shadow" x="-20%" y="-20%" width="140%" height="150%">
      <feDropShadow dx="0" dy="24" stdDeviation="26" flood-color="#25313a" flood-opacity=".18"/>
    </filter>
  </defs>
  <rect width="1200" height="1200" fill="url(#bg)"/>
  <circle cx="206" cy="203" r="122" fill="#ffffff" opacity=".58"/>
  <circle cx="1002" cy="246" r="168" fill="#d9e7e5" opacity=".55"/>
  <circle cx="980" cy="950" r="220" fill="#f2d7bf" opacity=".3"/>
  <g filter="url(#shadow)">
    <path d="M163 857c77-48 226-72 447-72s370 24 447 72c34 21 33 55-3 76-80 47-228 70-444 70s-364-23-444-70c-36-21-37-55-3-76Z" fill="#38444d" opacity=".14"/>
    <path d="M180 812h840c28 0 51 23 51 51v6c0 29-23 52-51 52H180c-28 0-51-23-51-52v-6c0-28 23-51 51-51Z" fill="#b6845c"/>
    <path d="M198 792h804c35 0 63 28 63 63H135c0-35 28-63 63-63Z" fill="#d5a173"/>
  </g>
  <g filter="url(#shadow)">
    <g transform="translate(252 354)">
      <path d="M54 94h246l-27 330c-4 50-46 88-96 88h-1c-50 0-92-38-96-88L54 94Z" fill="url(#mugA)"/>
      <path d="M53 94c0-36 55-65 123-65s124 29 124 65-56 65-124 65S53 130 53 94Z" fill="#f7fbfb"/>
      <path d="M98 94c0-19 35-34 78-34s79 15 79 34-36 34-79 34-78-15-78-34Z" fill="#809791"/>
      <path d="M275 175c61 3 111 56 106 118-5 66-61 117-126 114l10-78c25 0 46-19 48-44 2-25-16-46-41-49l3-61Z" fill="none" stroke="#a8bdb8" stroke-width="42" stroke-linecap="round"/>
      <path d="M88 198c42 24 128 30 188 0l-9 57c-61 28-124 28-170 0l-9-57Z" fill="#ffffff" opacity=".35"/>
      <path d="M116 350c41 16 88 17 135 3" fill="none" stroke="#79918b" stroke-width="16" stroke-linecap="round" opacity=".55"/>
    </g>
    <g transform="translate(466 272)">
      <path d="M44 110h269l-30 382c-5 55-51 98-107 98s-103-43-108-98L44 110Z" fill="url(#mugB)"/>
      <path d="M43 110c0-40 60-72 135-72s136 32 136 72-61 73-136 73S43 150 43 110Z" fill="#f3dcc9"/>
      <path d="M95 110c0-22 37-39 83-39s84 17 84 39-38 40-84 40-83-18-83-40Z" fill="#80543c"/>
      <path d="M289 202c70 6 124 68 115 138-9 72-73 124-144 116l14-83c29 3 56-18 60-48 4-30-18-57-48-61l3-62Z" fill="none" stroke="#b7835e" stroke-width="46" stroke-linecap="round"/>
      <path d="M84 237c55 32 146 34 192 0l-8 67c-53 34-121 35-174 0l-10-67Z" fill="#ffe9d8" opacity=".35"/>
      <path d="M121 422c42 18 100 19 149 2" fill="none" stroke="#8a5d42" stroke-width="18" stroke-linecap="round" opacity=".5"/>
    </g>
    <g transform="translate(676 377)">
      <path d="M53 92h244l-26 326c-4 49-45 87-95 87s-91-38-95-87L53 92Z" fill="url(#mugC)"/>
      <path d="M52 92c0-35 55-64 123-64s123 29 123 64-55 65-123 65S52 128 52 92Z" fill="#dff2ef"/>
      <path d="M96 92c0-19 35-34 79-34 43 0 78 15 78 34s-35 34-78 34c-44 0-79-15-79-34Z" fill="#4c6f69"/>
      <path d="M272 173c61 3 110 55 105 117-5 66-60 116-125 113l10-78c25 1 46-18 48-43 2-25-16-47-41-50l3-59Z" fill="none" stroke="#7baaa2" stroke-width="42" stroke-linecap="round"/>
      <path d="M86 194c45 26 132 28 186 0l-8 57c-58 27-118 27-169 0l-9-57Z" fill="#edfdfa" opacity=".35"/>
      <path d="M116 343c39 15 83 16 130 2" fill="none" stroke="#496d68" stroke-width="16" stroke-linecap="round" opacity=".48"/>
    </g>
  </g>
  <g opacity=".55">
    <path d="M367 219c-19-35-4-65 16-90 24-31 25-62 10-88" fill="none" stroke="#ffffff" stroke-width="19" stroke-linecap="round"/>
    <path d="M577 166c-17-31-3-58 14-81 21-27 22-54 9-77" fill="none" stroke="#ffffff" stroke-width="17" stroke-linecap="round"/>
    <path d="M781 236c-18-32-4-60 15-84 22-28 23-57 9-81" fill="none" stroke="#ffffff" stroke-width="17" stroke-linecap="round"/>
  </g>
</svg>
